<svg width="812" height="200" viewBox="0 0 812 200" fill="none" xmlns="http://www.w3.org/2000/svg">
<g clip-path="url(#clip0_46_124)">
<path d="M339.109 60.3142H302.419L262.052 93.9015V34.8384H238.69V165.163H262.052V131.571L302.854 165.163H339.306L275.799 112.638L339.109 60.3142Z" fill="#1E293B"/>
<path d="M368.741 64.8162C363.258 67.1594 358.359 70.4661 354.182 74.6454C350.052 78.7745 346.772 83.6474 344.433 89.1355C342.09 94.6406 340.904 100.624 340.904 106.918V165.594H364.271V106.918C364.271 103.784 364.86 100.851 366.024 98.2C367.212 95.4971 368.83 93.1094 370.815 91.121C372.927 89.0551 375.317 87.4415 377.948 86.3077C380.568 85.1313 383.486 84.537 386.617 84.537H408.606V61.184H386.617C380.306 61.184 374.286 62.4076 368.741 64.8162Z" fill="#1E293B"/>
<path d="M501.455 74.5478C496.676 69.6995 490.878 65.7805 484.227 62.8997C477.686 60.0473 470.592 58.6012 463.145 58.6012C455.698 58.6012 448.604 60.0473 442.075 62.895C435.566 65.6906 429.766 69.6115 424.843 74.5374C420.016 79.3356 416.119 85.1634 413.265 91.8459C410.414 98.41 408.969 105.55 408.969 113.069C408.969 120.588 410.402 127.669 413.228 134.153C416.062 140.72 419.967 146.521 424.851 151.406C429.805 156.294 435.597 160.196 442.064 163.004C448.6 165.856 455.694 167.302 463.146 167.302C468.679 167.302 474.189 166.453 479.554 164.77C484.743 163.076 489.559 160.679 493.856 157.651C498.26 154.589 502.148 150.919 505.406 146.755L515.532 133.943H485.893L485.142 134.705C482.768 137.111 480.111 139.064 477.197 140.537C473.01 142.765 468.281 143.897 463.145 143.897C456.366 143.897 450.307 141.949 445.129 138.1C440.686 134.819 437.301 130.638 435.064 125.677H515.734L516.201 123.709C516.966 120.464 517.354 116.884 517.354 113.068C517.354 105.649 515.924 98.5151 513.095 91.8553C510.246 85.2155 506.328 79.3905 501.455 74.5469V74.5478ZM492.055 102.338H434.031C436.083 96.8248 439.513 92.144 444.235 88.4162C449.665 84.1423 456.027 81.977 463.145 81.977C470.318 81.977 476.64 84.1281 481.938 88.3717C486.637 92.1307 490.035 96.822 492.055 102.338Z" fill="#1E293B"/>
<path d="M522.191 84.3146H573.044L523.903 146.155V165.821H605.377V142.446H557.053L606.431 80.1779V60.9417H522.191V84.3146Z" fill="#1E293B"/>
<path d="M619.766 84.3146H670.617L621.444 146.153V165.821H702.951V142.446H654.628L704.006 80.1779V60.9417H619.766V84.3146Z" fill="#1E293B"/>
<path d="M807.906 93.0469L807.902 93.0346C805.173 86.7345 801.415 81.1517 796.711 76.4208C791.917 71.7068 786.335 67.9326 780.09 65.1947C773.82 62.5316 767.017 61.183 759.866 61.183C752.716 61.183 745.939 62.5316 739.61 65.2099C733.355 67.9648 727.78 71.7371 723.022 76.4454C718.365 81.1593 714.595 86.7345 711.801 93.0469C709.119 99.3318 707.761 106.134 707.761 113.263C707.761 120.392 709.119 127.191 711.813 133.503C714.608 139.843 718.38 145.428 723.046 150.126C727.9 154.903 733.48 158.667 739.645 161.325C746.014 164.023 752.818 165.389 759.866 165.389C766.915 165.389 773.746 164.02 780.103 161.317C786.33 158.634 791.918 154.868 796.726 150.112C801.42 145.416 805.18 139.821 807.906 133.476C810.62 127.119 811.999 120.317 811.999 113.263C811.999 106.208 810.62 99.4066 807.906 93.0469ZM788.604 113.263C788.604 117.232 787.832 121.029 786.308 124.548C784.769 128.076 782.689 131.165 780.131 133.724C777.459 136.373 774.401 138.417 771.01 139.811C764.254 142.681 755.343 142.643 748.557 139.794C745.136 138.407 742.068 136.367 739.413 133.714C736.899 131.246 734.852 128.168 733.338 124.584C731.887 121.095 731.154 117.286 731.154 113.264C731.154 109.272 731.885 105.52 733.326 102.121C734.832 98.6088 736.882 95.5491 739.445 93.0062C741.928 90.4812 745.013 88.4049 748.618 86.831C752.112 85.3045 756.001 84.5408 759.874 84.5408C763.747 84.5408 767.599 85.3054 771.019 86.8339C774.394 88.2998 777.461 90.3838 780.13 93.0289C782.679 95.5567 784.761 98.624 786.316 102.154C787.834 105.564 788.603 109.303 788.603 113.265L788.604 113.263Z" fill="#1E293B"/>
<path fill-rule="evenodd" clip-rule="evenodd" d="M78.3418 0H159.385V81.0811L139.124 60.8108L100.385 99.5681L100.385 99.568L60.1085 139.866L60.1071 139.865L2.79658e-06 200L0 120.27L8.60041e-10 120.258L60.3607 59.8814L60.4218 59.8203L99.278 20.946L78.3418 0ZM54.5998 54.1663L2.79658e-06 5.6706e-05V79.7298L9.16685e-10 120.257L54.5998 54.1663ZM64.3265 144.086L120.214 200L160.736 159.46L107.451 106.597L64.3265 144.086Z" fill="url(#paint0_linear_46_124)"/>
</g>
<defs>
<linearGradient id="paint0_linear_46_124" x1="141.15" y1="22.973" x2="-0.0661282" y2="164.799" gradientUnits="userSpaceOnUse">
<stop stop-color="#FC00FF"/>
<stop offset="1" stop-color="#00DBDE"/>
</linearGradient>
<clipPath id="clip0_46_124">
<rect width="812" height="200" fill="white"/>
</clipPath>
</defs>
</svg>
