<svg width="349" height="77" viewBox="0 0 349 77" fill="none" xmlns="http://www.w3.org/2000/svg">
<g clip-path="url(#clip0)">
<path d="M0 51.24H61V61H0V51.24Z" fill="#FF623B"/>
<path d="M0 9.76H9.76V61H0V9.76Z" fill="url(#paint0_linear)"/>
<path d="M61 9.76H0V0H61V9.76Z" fill="#FF623B"/>
<path d="M61 51.24H51.24V0H61V51.24Z" fill="url(#paint1_linear)"/>
<path d="M330.764 60.565C325.824 60.565 321.056 58.888 316.996 56.211C312.228 53.451 309.468 48.766 306.708 44.081C304.948 39.396 304.948 33.457 304.948 27.518C304.948 21.661 306.625 17.058 309.385 12.373C312.145 8.688 315.83 5.928 320.515 3.168C325.2 0.408 330.139 0.408 334.824 0.408C340.345 0.408 344.528 2.917 348.794 5.426C353.06 7.935 355.319 12.369 357.658 16.802C360.914 21.235 360.914 26.174 360.914 31.113C360.914 31.948 360.83 32.783 360.83 33.618C360.747 34.453 360.58 35.205 360.58 36.04H327.035V29.766H356.564L353.804 32.192C353.804 28.176 352.382 25.416 349.879 22.656C348.457 19.812 345.864 18.222 343.27 16.632C340.677 15.042 336.992 15.042 333.228 15.042C329.38 15.042 325.699 16.716 322.771 18.39C319.842 21.066 318.253 23.909 316.664 26.919C315.074 29.929 315.074 33.022 315.074 36.949C315.074 41.043 316.747 44.219 318.42 47.395C320.093 50.571 323.189 52.245 326.285 53.919C329.381 55.592 333.312 55.592 337.243 55.592C340.589 55.592 343.349 54.421 346.109 53.25C348.869 52.079 350.542 49.903 352.132 47.728L356.984 52.664C354.14 56.01 349.962 57.767 345.613 59.524C341.515 61.281 337.334 61.281 332.568 61.281L330.764 60.565Z" fill="#343434"/>
<path d="M291.404 59.728V3.346H298.933V59.728H291.404ZM281.616 26.853V19.993H308.72V26.853H281.616Z" fill="#343434"/>
<path d="M256.18 60.565C250.742 60.565 246.309 57.888 241.793 55.211C237.358 52.451 239.283 47.766 236.773 43.081C234.263 38.396 236.773 32.457 236.773 26.518C236.773 20.662 239.283 16.059 241.793 11.374C244.386 6.689 248.82 4.013 253.255 1.253C257.689 -1.507 262.79 -1.507 267.81 1.253C272.327 1.252 275.924 3.177 279.437 5.101C283.034 6.941 285.209 10.286 287.635 13.631C289.81 16.893 290.061 20.989 290.061 25.085V37.048C289.81 41.314 287.635 44.659 285.041 47.921C282.948 51.266 279.351 53.106 275.837 54.946C272.24 56.786 268.142 56.786 263.627 56.786L256.18 60.565ZM257.434 53.455C263.039 53.455 266.469 49.69 269.899 45.925C273.329 42.076 273.329 36.137 273.329 30.198C273.329 26.1 271.739 23.007 270.149 19.914C268.643 16.904 265.799 15.146 262.955 13.388C260.111 11.631 256.433 11.631 252.755 11.631C248.99 11.631 245.812 13.388 242.884 15.145C240.04 16.9 238.367 20.786 236.778 23.796C235.188 26.807 235.188 29.734 235.188 32.644C235.188 36.659 236.777 39.669 238.366 42.679C239.872 45.606 242.716 47.447 245.644 49.205C248.489 50.962 252.251 50.962 256.098 50.962L257.434 53.455ZM269.397 59.728V49.02L270.819 39.317L269.397 29.697V19.993H277.009V59.728H269.397Z" fill="#343434"/>
<path d="M209.917 60.565C204.396 60.565 200.046 57.888 195.779 55.211C191.429 52.451 188.836 47.766 186.326 43.081C183.816 38.396 183.816 32.457 183.816 26.518C183.816 20.662 186.326 16.059 188.836 11.374C191.429 6.689 195.779 4.013 200.046 1.253C204.396 -1.507 209.917 -1.507 215.437 1.253C219.871 1.252 223.468 3.177 227.064 5.101C230.661 6.941 232.836 10.286 235.345 13.631C237.603 16.893 237.854 20.989 237.854 25.085V37.048C237.603 41.314 235.428 44.659 232.918 47.921C230.743 51.266 227.146 53.106 223.632 54.946C220.035 56.786 215.937 56.786 211.338 56.786L209.917 60.565ZM211.172 53.455C214.935 53.455 217.697 51.698 220.542 49.94C223.469 48.185 224.975 45.092 226.565 41.999C228.154 38.987 228.154 35.894 228.154 32.884C228.154 28.786 226.481 25.776 224.808 22.766C223.218 19.753 220.458 18.078 217.614 16.32C214.853 14.563 211.088 14.563 207.324 14.563C203.56 14.563 200.716 16.32 198.122 18.077C195.278 19.832 193.688 23.718 192.015 26.728C190.426 29.739 190.426 32.666 190.426 35.576C190.426 39.591 192.015 42.601 193.604 45.611C195.277 48.621 198.121 50.378 200.965 52.136C203.893 53.893 207.324 53.893 211.255 53.893L211.172 53.455ZM230.83 59.728H223.218V49.02L224.64 39.317L223.218 29.697V0H230.83V59.728Z" fill="#343434"/>
<path d="M167.837 60.565C163.32 60.565 159.639 58.64 155.875 56.715C152.278 54.79 150.103 51.362 147.927 47.934C145.752 44.586 145.501 40.32 145.501 36.054V22.091C145.752 17.741 147.927 14.396 150.428 11.134C152.853 7.789 156.366 5.864 159.888 3.939C163.568 2.015 167.66 2.015 171.668 2.015C177.106 2.015 181.624 4.775 186.058 7.535C190.576 10.295 192.918 14.98 195.259 19.665C197.684 24.35 197.684 29.785 197.684 35.22C197.684 41.076 195.176 45.678 192.667 50.28C190.158 54.965 186.058 58.227 181.707 60.816C177.273 63.489 172.088 63.489 166.817 63.489L167.837 60.565ZM146.924 76.375V19.993H154.453V30.45L153.031 40.07L154.453 49.773V76.375H146.924ZM166.482 53.455C170.247 53.455 173.091 51.697 175.935 49.94C178.863 48.185 180.452 45.092 182.125 41.999C183.798 38.904 183.798 35.895 183.798 32.885C183.798 28.952 182.125 25.942 180.452 22.932C178.779 19.92 175.935 18.162 173.175 16.405C170.33 14.647 166.566 14.647 162.884 14.647C159.12 14.647 156.275 16.405 153.515 18.162C150.671 19.834 149.165 23.804 147.575 26.814C145.986 29.825 145.986 32.752 145.986 35.662C145.986 39.594 147.492 42.687 149.081 45.697C150.754 48.624 153.598 50.381 156.526 52.139C159.454 53.896 162.801 53.896 166.399 53.896L166.482 53.455Z" fill="#343434"/>
<path d="M115.419 60.565C108.978 60.565 102.537 57.72 96.513 54.875C90.572 51.947 85.636 47.346 83.044 41.49C80.534 35.551 80.534 28.193 80.534 20.918V1.673H88.313V38.062C88.313 42.662 90.237 46.009 92.162 49.356C94.086 52.702 97.349 54.542 100.528 56.382C103.874 58.222 107.971 58.222 111.985 58.222C116.251 58.222 119.43 56.382 122.775 54.542C126.038 52.702 127.878 49.439 129.801 46.093C131.642 42.747 131.642 38.649 131.642 34.468V1.673H139.589V38.313C139.589 44.754 136.662 50.273 133.734 55.709C130.889 61.062 126.122 64.658 120.682 67.503C115.325 70.348 108.634 70.348 102.026 70.348L115.419 60.565Z" fill="#343434"/>
</g>
<defs>
<linearGradient id="paint0_linear" x1="4.88" y1="61" x2="4.88" y2="9.76" gradientUnits="userSpaceOnUse">
<stop stop-color="#FF623B"/>
<stop offset="0.3" stop-color="#FF623B"/>
<stop offset="0.9" stop-color="#FF623B" stop-opacity="0"/>
</linearGradient>
<linearGradient id="paint1_linear" x1="56.12" y1="0" x2="56.12" y2="51.24" gradientUnits="userSpaceOnUse">
<stop stop-color="#FF623B"/>
<stop offset="0.3" stop-color="#FF623B"/>
<stop offset="0.9" stop-color="#FF623B" stop-opacity="0"/>
</linearGradient>
<clipPath id="clip0">
<rect width="349" height="76.375" fill="white"/>
</clipPath>
</defs>
</svg> 